<svg width="297" height="297" xmlns="http://www.w3.org/2000/svg" xml:space="preserve" version="1.1">

 <g>
  <title>Layer 1</title>
  <g id="svg_1">
   <path fill="#ffffff" id="svg_2" d="m194.388,69.011c-3.922,3.917 -3.924,10.271 -0.005,14.192c26.363,26.382 26.347,69.324 -0.038,95.724c-3.918,3.923 -3.916,10.275 0.004,14.194c1.961,1.958 4.527,2.938 7.096,2.938c2.569,0 5.139,-0.982 7.099,-2.942c34.202,-34.224 34.219,-89.895 0.037,-124.103c-3.917,-3.919 -10.273,-3.923 -14.193,-0.003z"/>
   <path fill="#ffffff" id="svg_3" d="m156.868,97.801c-3.921,3.916 -3.923,10.271 -0.005,14.191c10.51,10.519 10.509,27.633 -0.002,38.151c-3.918,3.92 -3.916,10.275 0.005,14.193c1.959,1.959 4.527,2.937 7.094,2.937c2.57,0 5.14,-0.98 7.099,-2.942c18.329,-18.341 18.33,-48.186 0.002,-66.526c-3.917,-3.923 -10.273,-3.925 -14.193,-0.004z"/>
   <path fill="#ffffff" id="svg_4" d="m253.01,24.56c-3.918,-3.922 -10.272,-3.924 -14.192,-0.006c-3.922,3.918 -3.924,10.273 -0.005,14.193c50.854,50.887 50.832,133.707 -0.052,184.618c-3.919,3.92 -3.917,10.275 0.004,14.193c1.96,1.958 4.526,2.938 7.095,2.938c2.568,0 5.139,-0.982 7.099,-2.942c58.702,-58.734 58.725,-154.284 0.051,-212.994z"/>
   <path fill="#ffffff" id="svg_5" d="m73.015,195.793c25.803,-1.778 46.258,-23.349 46.258,-49.627c0,-27.437 -22.297,-49.757 -49.704,-49.757c-27.407,0 -49.705,22.32 -49.705,49.757c0,26.276 20.454,47.847 46.259,49.627c-19.32,0.743 -36.335,7.723 -48.193,19.86c-12.183,12.469 -18.374,29.733 -17.905,49.928c0.127,5.449 4.581,9.803 10.033,9.803l119.012,0c5.452,0 9.907,-4.354 10.033,-9.805c0.469,-20.196 -5.724,-37.462 -17.907,-49.931c-11.857,-12.134 -28.865,-19.112 -48.181,-19.855zm-33.079,-49.627c0,-16.367 13.293,-29.685 29.633,-29.685c16.34,0 29.632,13.317 29.632,29.685c0,16.37 -13.292,29.688 -29.632,29.688c-16.34,0 -29.633,-13.318 -29.633,-29.688zm-19.377,109.145c1.307,-10.39 5.233,-18.983 11.729,-25.63c8.75,-8.956 21.99,-13.888 37.279,-13.888c15.288,0 28.524,4.93 37.272,13.884c6.495,6.646 10.423,15.242 11.729,25.634l-98.009,0z"/>
  </g>
  <g id="svg_6"/>
  <g id="svg_7"/>
  <g id="svg_8"/>
  <g id="svg_9"/>
  <g id="svg_10"/>
  <g id="svg_11"/>
  <g id="svg_12"/>
  <g id="svg_13"/>
  <g id="svg_14"/>
  <g id="svg_15"/>
  <g id="svg_16"/>
  <g id="svg_17"/>
  <g id="svg_18"/>
  <g id="svg_19"/>
  <g id="svg_20"/>
 </g>
</svg>